<svg width="194" height="56" viewBox="0 0 194 56" fill="none" xmlns="http://www.w3.org/2000/svg">
<path d="M50.56 37.96H44.56L66.4 15.4H76.4V41H66.4V23.56L69.4 24.8L53.6 41H41.6L25.76 24.84L28.8 23.6V41H18.8V15.4H28.8L50.56 37.96ZM158.792 15.4C162.392 15.4 165.366 15.7467 167.712 16.44C170.059 17.1333 171.899 18.08 173.232 19.28C174.566 20.48 175.499 21.8533 176.032 23.4C176.592 24.92 176.872 26.52 176.872 28.2C176.872 29.88 176.566 31.4933 175.952 33.04C175.339 34.56 174.326 35.92 172.912 37.12C171.526 38.32 169.672 39.2667 167.352 39.96C165.059 40.6533 162.206 41 158.792 41H129.992V15.4H158.792ZM139.992 33H158.392C159.886 33 161.152 32.9067 162.192 32.72C163.232 32.5067 164.059 32.2 164.672 31.8C165.312 31.4 165.766 30.9067 166.032 30.32C166.326 29.7067 166.472 29 166.472 28.2C166.472 27.4 166.326 26.7067 166.032 26.12C165.766 25.5067 165.312 25 164.672 24.6C164.059 24.2 163.232 23.9067 162.192 23.72C161.152 23.5067 159.886 23.4 158.392 23.4H139.992V33Z" fill="#252629"/>
<path d="M94.1631 41.6C92.2965 41.6 90.5231 41.44 88.8431 41.12C87.1631 40.8267 85.6698 40.3867 84.3631 39.8C83.0831 39.1867 82.0698 38.4267 81.3231 37.52C80.5765 36.5867 80.2031 35.5067 80.2031 34.28C80.2031 32.8667 80.6431 31.7467 81.5231 30.92C82.4031 30.0667 83.6298 29.44 85.2031 29.04C86.8031 28.6133 88.6831 28.32 90.8431 28.16C93.0298 28 95.4031 27.9067 97.9631 27.88L98.0031 28.12C95.5498 28.0933 93.2831 28 91.2031 27.84C89.1498 27.6533 87.3498 27.3467 85.8031 26.92C84.2831 26.4667 83.0965 25.8533 82.2431 25.08C81.4165 24.28 81.0031 23.2667 81.0031 22.04C81.0031 20.3067 81.7365 18.8933 83.2031 17.8C84.6698 16.7067 86.7898 15.9067 89.5631 15.4C92.3365 14.8667 95.6698 14.6 99.5631 14.6C102.336 14.6 104.91 14.8 107.283 15.2C109.656 15.6 111.723 16.2267 113.483 17.08C115.243 17.9067 116.616 18.9733 117.603 20.28C118.59 21.56 119.083 23.0933 119.083 24.88H109.523C109.416 24 108.51 23.3333 106.803 22.88C105.096 22.4267 102.816 22.2 99.9631 22.2C97.0031 22.2 94.8298 22.3733 93.4431 22.72C92.0831 23.04 91.4031 23.6267 91.4031 24.48C91.4031 25.0667 91.7231 25.5467 92.3631 25.92C93.0031 26.2667 94.0698 26.52 95.5631 26.68C97.0831 26.8133 99.1631 26.88 101.803 26.88H126.803V29.68H119.163V41H110.123C110.043 40.5467 109.95 39.92 109.843 39.12C109.763 38.32 109.683 37.4 109.603 36.36C109.55 35.2933 109.523 34.16 109.523 32.96L110.203 33.44C109.91 34.1867 109.443 35.0267 108.803 35.96C108.163 36.8667 107.256 37.76 106.083 38.64C104.91 39.4933 103.35 40.2 101.403 40.76C99.4831 41.32 97.0698 41.6 94.1631 41.6ZM98.9631 35.44C101.496 35.44 103.536 35.2667 105.083 34.92C106.63 34.5467 107.763 34.0667 108.483 33.48C109.203 32.8667 109.563 32.2 109.563 31.48V29.68H101.803C98.2298 29.68 95.4965 29.8267 93.6031 30.12C91.7365 30.3867 90.8031 31.1067 90.8031 32.28C90.8031 33.1333 91.4698 33.88 92.8031 34.52C94.1365 35.1333 96.1898 35.44 98.9631 35.44Z" fill="#636877"/>
</svg>
